<svg preserveAspectRatio="none" overflow="visible" style="display: block;" width="156" height="156" viewBox="0 0 156 156" fill="none" xmlns="http://www.w3.org/2000/svg">
<g id="Group 2147229749">
<foreignObject x="-20" y="-20" width="196" height="196"><div xmlns="http://www.w3.org/1999/xhtml" style="backdrop-filter:blur(10px);clip-path:url(#bgblur_0_0_11_clip_path);height:100%;width:100%"></div></foreignObject><g id="Ellipse 43691" data-figma-bg-blur-radius="20">
<circle cx="78" cy="78" r="77.5" fill="#22120F" fill-opacity="0.2"/>
<circle cx="78" cy="78" r="77.5" fill="url(#paint0_linear_0_11)" fill-opacity="0.4"/>
<circle cx="78" cy="78" r="77.5" stroke="#AD9DEE" stroke-opacity="0.5"/>
<circle cx="78" cy="78" r="77.5" stroke="url(#paint1_radial_0_11)"/>
<circle cx="78" cy="78" r="77.5" stroke="url(#paint2_radial_0_11)" style="mix-blend-mode:screen"/>
</g>
<g id="coding 1 [Vectorized]" clip-path="url(#clip1_0_11)">
<path id="Vector" d="M54 66.7012L85.9383 66.7011H96.5259L99.9802 66.7007C100.637 66.7005 101.347 66.6871 102 66.7094V99.3002C101.928 99.5259 101.875 99.7823 101.789 100C101.478 100.794 100.97 101.308 100.226 101.7C99.8902 101.876 99.5808 101.887 99.3495 102H56.6572C56.5198 101.933 56.1595 101.86 55.9746 101.787C55.2056 101.484 54.5627 100.862 54.2382 100.102C54.1378 99.8665 54.1041 99.5761 54 99.3504V66.7012ZM80.7408 98.4609C80.9543 98.4546 81.1423 98.4476 81.3443 98.3719C81.9185 98.1565 82.2984 97.6296 82.2769 97.0088C82.2654 96.6253 82.0966 96.2634 81.8105 96.008C81.319 95.565 80.6105 95.6566 79.9884 95.6566H78.4207L73.3585 95.6578H63.9304C62.3536 95.6578 60.7014 95.6334 59.1309 95.6597C58.9819 95.6658 58.8378 95.6705 58.69 95.6916C57.9725 95.7942 57.5019 96.4509 57.549 97.1599C57.5757 97.5384 57.7564 97.8895 58.0489 98.1312C58.27 98.3119 58.54 98.4223 58.8242 98.4483C59.0542 98.471 59.4326 98.4619 59.6725 98.4619L61.0897 98.4616H65.7404L80.7408 98.4609ZM96.8337 85.7512C97.338 85.7484 97.6537 85.7079 98.0447 85.3289C98.3133 85.069 98.4539 84.7165 98.4516 84.3413C98.4476 83.9663 98.2962 83.6077 98.0297 83.3433C97.5375 82.8602 96.7877 82.9521 96.1455 82.9521H94.5647L89.4352 82.953H80.1338C78.5967 82.9528 76.9666 82.9252 75.4406 82.9545L75.3746 82.9559C74.8661 82.9676 74.4685 82.9877 74.0892 83.3986C73.8327 83.6761 73.6981 84.0448 73.7156 84.4223C73.7383 84.8055 73.9155 85.1632 74.2067 85.4133C74.6971 85.8361 75.3009 85.7534 75.9069 85.7529L77.3388 85.7517L81.9199 85.751L96.8337 85.7512ZM80.9037 92.1047C81.7348 92.0229 82.3685 91.4128 82.2689 90.5416C82.2258 90.1638 82.0305 89.8195 81.7284 89.5884C81.4697 89.3895 81.2927 89.3435 80.9677 89.3304C80.569 89.3142 80.1518 89.3217 79.7524 89.322H77.5399L70.6492 89.3215H62.9198L60.3858 89.3217C59.9227 89.3217 59.3728 89.3081 58.918 89.3332C58.5163 89.3414 58.2295 89.4246 57.9387 89.7277C57.6724 90.0007 57.5294 90.3708 57.5428 90.7519C57.558 91.132 57.7262 91.4897 58.0091 91.7438C58.527 92.2083 59.1617 92.1077 59.8143 92.1077H61.4432H66.6283L76.0685 92.1075C77.651 92.1073 79.3273 92.1352 80.9037 92.1047ZM97.2073 76.2187C98.5774 75.9387 98.9154 74.3856 97.7552 73.6125C97.5033 73.4446 97.2855 73.4592 96.9895 73.4314C96.0705 73.4155 95.1345 73.4228 94.2155 73.4228L88.8684 73.4236L85.7365 73.4228C85.4346 73.4227 84.5161 73.4027 84.2738 73.4383C83.4598 73.5223 82.8598 74.1413 82.9566 74.9767C83.002 75.3583 83.1996 75.7054 83.505 75.939C83.7466 76.1255 83.9871 76.2031 84.2913 76.2167C84.8248 76.2404 85.3976 76.229 85.9334 76.229L89.1776 76.2292L94.3805 76.2291C95.2802 76.229 96.315 76.2533 97.2073 76.2187ZM96.9127 98.4609C97.3786 98.4471 97.7489 98.3599 98.0827 97.9999C98.3374 97.7205 98.4694 97.3505 98.4485 96.9729C98.4112 96.3497 97.9373 95.7628 97.294 95.6834C96.9045 95.6353 96.4418 95.6566 96.0462 95.6566L93.8592 95.6573C91.7442 95.6583 89.538 95.6234 87.4317 95.6597C87.0991 95.6723 86.8465 95.6763 86.5439 95.8376C86.081 96.0839 85.818 96.5794 85.8333 97.1018C85.8455 97.4777 86.0081 97.833 86.2852 98.0873C86.8146 98.5662 87.5648 98.4626 88.234 98.4619L90.1821 98.4616L96.9127 98.4609ZM69.8884 70.276C69.3018 70.3442 68.9826 70.6455 68.7304 71.1627C68.5872 71.4563 68.4334 71.754 68.287 72.0466L67.0079 74.6045L66.0829 76.4551C65.8261 76.9689 65.4189 77.5915 65.4956 78.1774C65.5421 78.5552 65.7415 78.8977 66.0473 79.1245C66.349 79.3484 66.6955 79.4215 67.0644 79.3903C67.8581 79.212 68.0603 78.8215 68.389 78.1364C68.4858 77.9346 68.5956 77.7216 68.696 77.5202L69.8007 75.308L70.8397 73.2335C70.9888 72.9355 71.2774 72.3986 71.3781 72.1103C71.4639 71.8592 71.4788 71.5892 71.4211 71.3302C71.3408 70.9754 71.124 70.6666 70.8176 70.4706C70.5168 70.2789 70.2306 70.2559 69.8884 70.276ZM74.8865 69.8512C74.5106 69.9356 74.1403 70.1059 73.9459 70.4489C73.358 71.486 73.9604 72.0382 74.6018 72.7525C75.0803 73.2855 75.654 73.8559 76.0857 74.3938C75.8975 74.6399 75.6416 74.8701 75.4691 75.0973C75.0693 75.6238 74.1456 76.3898 73.8648 76.9605C73.738 77.2168 73.6912 77.5052 73.7303 77.7886C73.8707 78.7589 74.8785 79.2202 75.762 78.8227C76.1802 78.5576 76.5428 78.0912 76.8816 77.715L77.8214 76.6789C78.116 76.3599 78.4083 76.0386 78.6977 75.7151C78.8355 75.5619 79.0111 75.3816 79.1302 75.2189C79.2415 75.0689 79.32 74.897 79.3608 74.7146C79.5485 73.8984 79.038 73.454 78.5435 72.91L77.5416 71.8091L76.6052 70.7758C76.0136 70.1241 75.8184 69.7926 74.8865 69.8512ZM97.0594 92.1049C97.4955 92.067 97.8319 91.9441 98.1239 91.6015C98.3693 91.3095 98.4851 90.9298 98.4441 90.5505C98.4021 90.1737 98.2104 89.8294 97.9118 89.5952C97.7618 89.479 97.478 89.3449 97.2879 89.3353C96.8473 89.313 96.3778 89.321 95.9355 89.321L93.3037 89.322L89.3925 89.3217C88.7088 89.3215 87.8925 89.3016 87.2182 89.333C86.3946 89.3484 85.8026 89.9318 85.8323 90.7629C85.849 91.14 86.0163 91.4944 86.2971 91.7466C86.8359 92.2242 87.6483 92.1091 88.3296 92.1089L90.548 92.1075L94.8495 92.107C95.5765 92.107 96.3352 92.119 97.0594 92.1049ZM59.2027 82.9561C58.7034 82.9671 58.309 82.9896 57.932 83.3794C57.6776 83.6477 57.5381 84.0049 57.5436 84.3748C57.5507 84.7509 57.7083 85.1086 57.981 85.3678C58.5054 85.8626 59.2286 85.7529 59.902 85.7524L61.7951 85.7515L68.584 85.751C68.9084 85.7477 69.1847 85.7311 69.4719 85.5546C69.9026 85.2898 70.1737 84.8412 70.165 84.3295C70.1571 83.9534 70.0006 83.5955 69.7296 83.3344C69.2156 82.8396 68.3386 82.9523 67.6662 82.9523L65.4705 82.9521L61.3553 82.9526C60.659 82.9528 59.8928 82.9371 59.2027 82.9561ZM61.5982 69.8522C60.9523 69.9858 60.7498 70.3148 60.3306 70.7772L59.3409 71.8699L58.3625 72.9493C57.8794 73.4825 57.4103 73.896 57.5755 74.6951C57.6116 74.8775 57.6873 75.0497 57.7971 75.1997C57.9595 75.4244 58.1697 75.6436 58.3579 75.8487C58.9991 76.5474 59.6271 77.259 60.2707 77.9555C60.7248 78.4467 60.9235 78.8191 61.6118 78.9628C62.0354 79.0017 62.3904 78.9265 62.724 78.6457C63.0121 78.4059 63.1903 78.0595 63.2178 77.6857C63.2553 77.2211 63.0794 76.8727 62.7795 76.5356C62.3325 76.0334 61.8677 75.5431 61.4194 75.0419C61.2466 74.8487 61.0107 74.6085 60.8553 74.4058C61.288 73.856 61.8405 73.3205 62.3007 72.7871C62.5053 72.55 62.902 72.1752 63.0463 71.9047C63.1868 71.6455 63.2449 71.3496 63.2126 71.0565C63.1162 70.197 62.4092 69.7933 61.5982 69.8522Z" fill="white"/>
<path id="Vector_2" d="M56.6318 54H99.3438C99.5529 54.0896 99.788 54.1181 99.9973 54.1999C100.776 54.4992 101.403 55.0988 101.735 55.864C101.871 56.1801 101.897 56.4041 102 56.7046V63.899C101.693 63.929 101.266 63.9184 100.951 63.9181L99.3108 63.9158L94.0022 63.9155L76.8732 63.9157L61.0891 63.9157L56.2874 63.9152L54.878 63.9194C54.6043 63.9207 54.2671 63.9335 54 63.9046V56.627C54.1014 56.4366 54.1488 56.09 54.2476 55.8751C54.5981 55.1126 55.1736 54.5249 55.9575 54.2122C56.1686 54.128 56.3981 54.0915 56.6102 54.0087L56.6318 54ZM96.8609 60.3451C97.1665 60.3415 97.4177 60.334 97.6969 60.1842C98.1696 59.9306 98.4567 59.4615 98.4511 58.922C98.4445 58.541 98.2852 58.1785 98.0088 57.9161C97.4934 57.4358 96.6094 57.546 95.9419 57.546L93.9436 57.5459L87.6169 57.5468L77.1828 57.5466L73.7242 57.5465C73.1352 57.5465 72.4916 57.5343 71.9061 57.5496C71.5916 57.5568 71.3152 57.5517 71.024 57.6942C70.5284 57.9366 70.2197 58.4534 70.2443 59.0047C70.2649 59.385 70.4366 59.7413 70.7214 59.9942C71.23 60.4443 71.9029 60.3469 72.5399 60.3465L74.2198 60.3453L79.5682 60.3448L96.8609 60.3451ZM65.5192 60.3216C66.2824 60.1969 66.7984 59.4751 66.6696 58.7127C66.5408 57.9502 65.8163 57.438 65.0546 57.5709C64.2986 57.7028 63.7911 58.4206 63.9189 59.1773C64.0467 59.934 64.7618 60.4454 65.5192 60.3216ZM59.1677 60.3213C59.93 60.1964 60.4455 59.4754 60.3171 58.7136C60.1886 57.9518 59.4654 57.4396 58.7042 57.5715C57.9478 57.7024 57.4395 58.4201 57.5671 59.1771C57.6947 59.9341 58.4101 60.4455 59.1677 60.3213Z" fill="white"/>
</g>
</g>
<defs>
<clipPath id="bgblur_0_0_11_clip_path" transform="translate(20 20)"><circle cx="78" cy="78" r="77.5"/>
</clipPath><linearGradient id="paint0_linear_0_11" x1="105.972" y1="0" x2="105.972" y2="265.2" gradientUnits="userSpaceOnUse">
<stop stop-color="#AD9DEE" stop-opacity="0.5"/>
<stop offset="1" stop-color="#AD9DEE" stop-opacity="0"/>
</linearGradient>
<radialGradient id="paint1_radial_0_11" cx="0" cy="0" r="1" gradientTransform="matrix(25.2828 -111.15 8.92523 106.711 1.61379 142.35)" gradientUnits="userSpaceOnUse">
<stop stop-color="#AD9DEE"/>
<stop offset="1" stop-color="#AD9DEE" stop-opacity="0"/>
</radialGradient>
<radialGradient id="paint2_radial_0_11" cx="0" cy="0" r="1" gradientTransform="matrix(25.2828 -111.15 8.92523 106.711 1.61379 142.35)" gradientUnits="userSpaceOnUse">
<stop stop-color="#AD9DEE"/>
<stop offset="1" stop-color="#AD9DEE" stop-opacity="0"/>
</radialGradient>
<clipPath id="clip1_0_11">
<rect width="48" height="48" fill="white" transform="translate(54 54)"/>
</clipPath>
</defs>
</svg>
